<svg id="visual" viewBox="0 0 900 600" width="900" height="600" xmlns="http://www.w3.org/2000/svg" xmlns:xlink="http://www.w3.org/1999/xlink" version="1.1"><path d="M0 103L82 103L82 127L164 127L164 151L245 151L245 217L327 217L327 241L409 241L409 199L491 199L491 115L573 115L573 145L655 145L655 97L736 97L736 157L818 157L818 127L900 127L900 145L900 0L900 0L818 0L818 0L736 0L736 0L655 0L655 0L573 0L573 0L491 0L491 0L409 0L409 0L327 0L327 0L245 0L245 0L164 0L164 0L82 0L82 0L0 0Z" fill="#16456d"></path><path d="M0 193L82 193L82 175L164 175L164 247L245 247L245 277L327 277L327 307L409 307L409 283L491 283L491 157L573 157L573 211L655 211L655 175L736 175L736 235L818 235L818 169L900 169L900 235L900 143L900 125L818 125L818 155L736 155L736 95L655 95L655 143L573 143L573 113L491 113L491 197L409 197L409 239L327 239L327 215L245 215L245 149L164 149L164 125L82 125L82 101L0 101Z" fill="#524690"></path><path d="M0 325L82 325L82 259L164 259L164 301L245 301L245 409L327 409L327 373L409 373L409 415L491 415L491 313L573 313L573 385L655 385L655 271L736 271L736 349L818 349L818 325L900 325L900 319L900 233L900 167L818 167L818 233L736 233L736 173L655 173L655 209L573 209L573 155L491 155L491 281L409 281L409 305L327 305L327 275L245 275L245 245L164 245L164 173L82 173L82 191L0 191Z" fill="#a42a8f"></path><path d="M0 433L82 433L82 319L164 319L164 397L245 397L245 487L327 487L327 493L409 493L409 487L491 487L491 439L573 439L573 427L655 427L655 391L736 391L736 445L818 445L818 403L900 403L900 403L900 317L900 323L818 323L818 347L736 347L736 269L655 269L655 383L573 383L573 311L491 311L491 413L409 413L409 371L327 371L327 407L245 407L245 299L164 299L164 257L82 257L82 323L0 323Z" fill="#e60061"></path><path d="M0 601L82 601L82 601L164 601L164 601L245 601L245 601L327 601L327 601L409 601L409 601L491 601L491 601L573 601L573 601L655 601L655 601L736 601L736 601L818 601L818 601L900 601L900 601L900 401L900 401L818 401L818 443L736 443L736 389L655 389L655 425L573 425L573 437L491 437L491 485L409 485L409 491L327 491L327 485L245 485L245 395L164 395L164 317L82 317L82 431L0 431Z" fill="#fd0000"></path></svg>