<svg id="visual" viewBox="0 0 900 600" width="900" height="600" xmlns="http://www.w3.org/2000/svg" xmlns:xlink="http://www.w3.org/1999/xlink" version="1.1"><path d="M0 205L82 181L164 175L245 193L327 121L409 193L491 121L573 79L655 181L736 199L818 271L900 187L900 0L818 0L736 0L655 0L573 0L491 0L409 0L327 0L245 0L164 0L82 0L0 0Z" fill="#16456d"></path><path d="M0 295L82 241L164 259L245 271L327 253L409 307L491 187L573 169L655 223L736 265L818 325L900 301L900 185L818 269L736 197L655 179L573 77L491 119L409 191L327 119L245 191L164 173L82 179L0 203Z" fill="#4b4686"></path><path d="M0 409L82 379L164 403L245 325L327 385L409 421L491 307L573 307L655 289L736 379L818 427L900 421L900 299L818 323L736 263L655 221L573 167L491 185L409 305L327 251L245 269L164 257L82 239L0 293Z" fill="#8b3987"></path><path d="M0 493L82 415L164 481L245 373L327 433L409 463L491 385L573 403L655 337L736 481L818 511L900 457L900 419L818 425L736 377L655 287L573 305L491 305L409 419L327 383L245 323L164 401L82 377L0 407Z" fill="#c11d6b"></path><path d="M0 601L82 601L164 601L245 601L327 601L409 601L491 601L573 601L655 601L736 601L818 601L900 601L900 455L818 509L736 479L655 335L573 401L491 383L409 461L327 431L245 371L164 479L82 413L0 491Z" fill="#de2238"></path></svg>